<svg xmlns="http://www.w3.org/2000/svg" viewBox="0 0 725 277"><defs><style>.cls-1{fill:#575756;}.cls-2{fill:#2c4255;}.cls-3{fill:none;}</style></defs><title>Asset 4</title><g id="Layer_2" data-name="Layer 2"><g id="Layer_1-2" data-name="Layer 1"><polygon class="cls-1" points="3.79 226.37 9.06 226.37 18.5 246.19 18.6 246.19 27.93 226.37 32.97 226.37 32.97 265.48 29.19 265.48 29.19 231.97 29.08 231.97 19.81 251.88 16.91 251.88 7.59 232.02 7.4 232.02 7.4 265.48 3.79 265.48 3.79 226.37"/><path class="cls-1" d="M40.26,256v-8.5c0-6.86,4.38-10.64,10.14-10.64,5.93,0,9.44,3.73,9.44,9.88v5.48H44.16v3.83c0,4.72,2.45,6.81,7,6.81a12.9,12.9,0,0,0,6.79-2l1.44,2.58a13.87,13.87,0,0,1-8.77,2.69c-6.09,0-10.37-3-10.37-10.1m15.91-6.59v-3c0-3.29-1.48-6.58-6.05-6.58-4.21,0-6,3.34-6,6.58v3Z"/><path class="cls-1" d="M66.63,237.56h3.61v4.82h.07A9.2,9.2,0,0,1,79,236.9a6.78,6.78,0,0,1,6.8,5.44h.05a9.32,9.32,0,0,1,8.72-5.44,6.73,6.73,0,0,1,7,7.08v21.5H97.74v-20.4c0-3.79-1.87-5.1-4.84-5.1A7.39,7.39,0,0,0,86,247.17v18.31H82.22V244.8c-.05-3.51-1.94-4.82-4.83-4.82-3.34,0-6.91,3.34-6.91,7.51v18H66.63V237.56Z"/><path class="cls-1" d="M113,260.87h-.1l-.07,4.6h-3.4V226.37h3.85V242h.17a8.71,8.71,0,0,1,7.84-5.17c5.26,0,7.78,3.85,7.78,8.24V257.2c0,5.76-3.89,8.94-8.45,8.94-2.9,0-6.58-1.92-7.62-5.27m12.23-3.5V245.3c0-3.23-1.75-5.32-5.38-5.32-3.11,0-6.57,3.23-6.57,8.12v7.12c0,4.5,3.08,8,6.76,8,3.06,0,5.19-2,5.19-5.87"/><path class="cls-1" d="M135.13,256v-8.5c0-6.86,4.4-10.64,10.15-10.64,5.91,0,9.43,3.73,9.43,9.88v5.48H139v3.83c0,4.72,2.48,6.81,7,6.81a13,13,0,0,0,6.79-2l1.44,2.58a13.92,13.92,0,0,1-8.79,2.69c-6.08,0-10.36-3-10.36-10.1M151,249.46v-3c0-3.29-1.47-6.58-6-6.58-4.25,0-6,3.34-6,6.58v3Z"/><path class="cls-1" d="M161.48,237.56h3.65v4.82h0c2-4.16,4.71-5.15,7.9-5.15a9,9,0,0,1,1.85.17v3.44a14.26,14.26,0,0,0-2.31-.16c-3.66,0-7.23,2.14-7.27,7.25v17.54h-3.86V237.56Z"/><path class="cls-1" d="M189,256.09v-9c0-6.53,4.25-10.16,9.94-10.16,5.91,0,10,3.4,10,10v9.05c0,6.85-4.23,10.2-9.94,10.2-6,0-10-3.4-10-10.05m16.13-.1v-9.32c0-3.74-1.82-6.76-6.18-6.76s-6.1,3.19-6.1,7V256c0,4.29,1.8,7,6.25,7s6-3.06,6-7"/><path class="cls-1" d="M218.09,240.79h-4.27v-3.17h4.27v-4.78c0-4.61,2.68-7.12,6.86-7.12a12.8,12.8,0,0,1,3.23.39v3.13a10.26,10.26,0,0,0-2.75-.27c-2,0-3.52,1-3.52,3.83v4.83h5.6v3.17h-5.6v24.68h-3.83V240.79Z"/><path class="cls-1" d="M245.34,260.49V240.75h-4.55v-3.07h4.55v-8.12h3.85v8.12h7.17v3.07h-7.17v18.53c0,2.24,1.15,3.24,3.61,3.24a11.34,11.34,0,0,0,3.35-.61v3.19a14.1,14.1,0,0,1-4.62.87c-3,0-6.18-1-6.18-5.48"/><path class="cls-1" d="M262.06,226.37h3.85v15.79H266a8.93,8.93,0,0,1,8.44-5.26,6.76,6.76,0,0,1,7,7.13v21.44h-3.83V245.18c0-3.78-1.64-5.21-4.82-5.21-3.36,0-6.92,3.45-6.92,7.68v17.82h-3.85v-39.1Z"/><path class="cls-1" d="M288.33,256v-8.5c0-6.86,4.39-10.64,10.15-10.64,5.91,0,9.42,3.73,9.42,9.88v5.48H292.22v3.83c0,4.72,2.46,6.81,7,6.81a13,13,0,0,0,6.79-2l1.44,2.58a13.88,13.88,0,0,1-8.79,2.69c-6.08,0-10.35-3-10.35-10.1m15.9-6.59v-3c0-3.29-1.47-6.58-6-6.58-4.23,0-6,3.34-6,6.58v3Z"/><path class="cls-1" d="M322.1,261l2.68-2.8c3,2.7,5.33,4.33,10.15,4.33,4.65,0,7.46-2.89,7.46-6.75,0-4.33-3-6.19-6.08-7.66l-4.93-2.37c-4.61-2.14-7.35-5.43-7.35-9.87,0-5.72,4.33-10.26,11.13-10.26,4.33,0,8.23,1.38,10.8,4.5l-2.57,2.58c-2.53-2.35-4.78-3.63-8.5-3.63s-6.7,2.1-6.7,6.37c0,3.19,1.87,5,5.59,6.75l4.55,2.2c5.11,2.46,8.17,5.71,8.17,10.76,0,6.46-5,11-12,11-5.25,0-9.43-1.81-12.39-5.1"/><polygon class="cls-1" points="353.47 226.37 357.59 226.37 374.59 257.31 374.7 257.31 374.7 226.37 378.31 226.37 378.31 265.48 374.77 265.48 357.21 233.17 357.08 233.17 357.08 265.48 353.47 265.48 353.47 226.37"/><path class="cls-1" d="M385.77,254.62V237.34c0-7,5.2-11.62,12.79-11.62,7,0,11.68,4.17,11.68,9.93v3h-3.67v-2.19c0-4.19-2.65-7.37-8.19-7.37s-8.48,3.52-8.48,8.46v16.55c0,6,3.55,8.57,8.66,8.57s8-2.92,8-7v-2.58h3.67V256c0,6.15-4.67,10.1-11.68,10.1-7.37,0-12.79-3.79-12.79-11.52"/><rect class="cls-1" x="415.43" y="247.71" width="11.4" height="3.07"/><polygon class="cls-1" points="433.2 226.37 437.27 226.37 437.27 261.97 454.43 261.97 454.43 265.48 433.2 265.48 433.2 226.37"/><path class="cls-1" d="M458.92,258.13c0-6.52,5.72-8.88,10.26-8.88h5.31v-4.76c0-3.3-2.2-4.78-5.47-4.78-3,0-5.77,1.43-5.77,4.45v1.59H459.8V244c0-4.72,4.32-7.13,9.66-7.13,4.93,0,8.93,2.25,8.93,7.41V258.4c0,2.14.24,5.7.27,7.07H475.1l-.22-4.43h-.11a8.76,8.76,0,0,1-8.18,5c-4.05,0-7.67-2.62-7.67-8m15.57-1.91v-4.34h-4.73c-3.23,0-6.89,1-6.89,5.7,0,3.79,2.34,5.55,5,5.55a6.68,6.68,0,0,0,6.58-6.91"/><polygon class="cls-1" points="482.94 237.56 487.05 237.56 493.31 260.27 493.35 260.27 499.88 237.56 503.48 237.56 494.94 265.54 491.22 265.54 482.94 237.56"/><path class="cls-1" d="M506.74,258.13c0-6.52,5.7-8.88,10.25-8.88h5.31v-4.76c0-3.3-2.17-4.78-5.46-4.78-3,0-5.76,1.43-5.76,4.45v1.59h-3.46V244c0-4.72,4.33-7.13,9.65-7.13,4.93,0,8.94,2.25,8.94,7.41V258.4c0,2.14.22,5.7.26,7.07h-3.55l-.22-4.43h-.12a8.74,8.74,0,0,1-8.16,5c-4.06,0-7.67-2.62-7.67-8m15.56-1.91v-4.34h-4.7c-3.25,0-6.92,1-6.92,5.7,0,3.79,2.37,5.55,5.05,5.55a6.68,6.68,0,0,0,6.57-6.91"/><path class="cls-1" d="M533.94,260V226.37h3.85v33c0,1.82.81,3.13,3.22,3.13a17.89,17.89,0,0,0,2.36-.2v3a10.89,10.89,0,0,1-3.63.54c-3.67,0-5.8-2-5.8-5.8"/><path class="cls-1" d="M549,226.92h3.84v5.87H549Zm0,10.65h3.84v27.91H549Z"/><path class="cls-1" d="M561,237.56h3.64v4.71h.05a9.3,9.3,0,0,1,8.73-5.37,6.86,6.86,0,0,1,7,7.13v21.44h-3.85v-20.4c0-3.73-1.81-5.1-4.82-5.1-3.34,0-6.89,3.34-6.89,7.51v18H561V237.56Z"/><path class="cls-1" d="M597.27,254.62V237.56c0-7.08,5.3-11.91,12.77-11.91,7.15,0,12,4.17,12,9.93v2.8h-3.74v-2.25c0-4.05-3.13-7.08-8.28-7.08-5.59,0-8.66,3.79-8.66,8.67v16.63c0,5.26,3.23,8.33,8.77,8.33,6.08,0,8.2-3.36,8.2-7.4v-6.8h-8.16v-3.23h12v10.52c0,6.09-4.74,10.37-12.14,10.37s-12.77-3.79-12.77-11.52"/><path class="cls-1" d="M629.77,237.56h3.65v4.82h0c2-4.16,4.7-5.15,7.89-5.15a9,9,0,0,1,1.87.17v3.44a14.24,14.24,0,0,0-2.29-.16c-3.69,0-7.23,2.14-7.31,7.25v17.54h-3.85V237.56Z"/><path class="cls-1" d="M647.43,256.09v-9c0-6.53,4.22-10.16,9.93-10.16,5.92,0,10,3.4,10,10v9.05c0,6.85-4.22,10.2-9.92,10.2-6,0-10-3.4-10-10.05m16.14-.1v-9.32c0-3.74-1.82-6.76-6.2-6.76s-6.1,3.19-6.1,7V256c0,4.29,1.83,7,6.25,7s6-3.06,6-7"/><path class="cls-1" d="M674.29,259V237.56h3.85v20.29c0,3.74,1.65,5.15,4.77,5.15,3.62,0,7-3.39,7-7.61V237.56h3.84v27.91h-3.46l-.17-4.77H690a9.16,9.16,0,0,1-8.5,5.44,6.85,6.85,0,0,1-7.2-7.14"/><path class="cls-1" d="M701.73,237.56h3.62v4.6h.1a8.92,8.92,0,0,1,8-5.31c5.17,0,7.91,3.67,7.91,8.06V257c0,5.71-3.34,9.16-8.45,9.16a7.68,7.68,0,0,1-7.23-4.94h-.12v14.05h-3.83V237.56Zm15.8,19.85v-12c0-3-1.55-5.48-5.39-5.48-3.68,0-6.59,3.41-6.59,8.28V255c0,4.71,3,8.22,6.92,8.22,2.91,0,5.05-1.86,5.05-5.81"/><polygon class="cls-2" points="59.38 5.4 3.79 151.59 34.76 151.59 77.04 35.6 120.16 151.59 153.12 151.59 96.19 5.4 59.38 5.4"/><polygon class="cls-2" points="182.45 28.52 142.01 28.52 133.16 5.39 254.85 5.39 254.85 28.52 212.06 28.52 212.06 151.59 182.45 151.59 182.45 28.52"/><polygon class="cls-2" points="302.49 83.44 302.49 151.59 272.85 151.59 272.85 5.39 302.49 5.39 302.49 68.1 356.43 5.39 392.06 5.39 331.43 73.89 394.55 151.59 357.09 151.59 302.49 83.44"/><rect class="cls-2" x="411.2" y="5.4" width="29.62" height="146.2"/><polygon class="cls-2" points="569.02 112.32 569.02 5.4 596.18 5.4 596.18 151.6 560.52 151.6 501.76 44.51 501.76 151.6 474.6 151.6 474.6 5.4 510.59 5.4 569.02 112.32"/><path class="cls-2" d="M711,33.64a67.65,67.65,0,0,0-32.13-7.94c-10.31,0-25,4.62-25,18.65s17.19,17.8,33.34,24.26c19.45,7.75,34.11,17.81,34.11,41.57,0,30.54-25,46.21-57.26,46.21-16.5,0-31-3.8-41.8-9.24L626,120.58a72.17,72.17,0,0,0,37.65,11.24c15.3,0,26.6-6,26.6-19.15s-15.95-18-31.94-24.42c-17-6.77-35.14-15.37-35.14-40.77,0-30.36,27.33-45.37,54.13-45.37,15.46,0,27,3.13,37,7.9Z"/><rect id="_Slice_" data-name="&lt;Slice&gt;" class="cls-3" width="725" height="277"/></g></g></svg>